<svg xmlns="http://www.w3.org/2000/svg" version="1.1" xmlns:xlink="http://www.w3.org/1999/xlink" width="24" height="24" x="0" y="0" viewBox="0 0 24 24" style="enable-background:new 0 0 512 512" xml:space="preserve"><g><path d="M10.27 21a1.253 1.253 0 1 1-1.26-1.25h.01A1.25 1.25 0 0 1 10.27 21zm6.75-1.25h-.01a1.255 1.255 0 1 0 .01 0zm4.685-11.258-1.014 6.166A3.3 3.3 0 0 1 17 17.75H8.734a2.762 2.762 0 0 1-2.721-2.361L4.5 4.823A1.256 1.256 0 0 0 3.266 3.75H3a.75.75 0 0 1 0-1.5h.266a2.762 2.762 0 0 1 2.721 2.361l.092.639H19a2.75 2.75 0 0 1 2.706 3.242zM19.959 7.2A1.248 1.248 0 0 0 19 6.75H6.293l1.2 8.427a1.256 1.256 0 0 0 1.241 1.073H17c1.6 0 1.986-.6 2.213-1.847l1.014-6.167a1.253 1.253 0 0 0-.268-1.036zM15.5 10.75h-1.25V9.5a.75.75 0 0 0-1.5 0v1.25H11.5a.75.75 0 0 0 0 1.5h1.25v1.25a.75.75 0 0 0 1.5 0v-1.25h1.25a.75.75 0 0 0 0-1.5z" fill="#000000" opacity="1" data-original="#000000"></path></g></svg>