<svg xmlns="http://www.w3.org/2000/svg" version="1.1" xmlns:xlink="http://www.w3.org/1999/xlink" width="32" height="32" x="0" y="0" viewBox="0 0 512 512" style="enable-background:new 0 0 512 512" xml:space="preserve"><defs><linearGradient id="a" x1="256" x2="256" y1="512" y2="0" gradientUnits="userSpaceOnUse"><stop offset="0" stop-color="#fd5900"></stop><stop offset="1" stop-color="#ffde00"></stop></linearGradient><linearGradient id="b" x1="301" x2="301" y1="331.575" y2="210.57" gradientUnits="userSpaceOnUse"><stop offset="0" stop-color="#ffe59a"></stop><stop offset="1" stop-color="#ffffd5"></stop></linearGradient></defs><g><linearGradient id="a" x1="256" x2="256" y1="512" y2="0" gradientUnits="userSpaceOnUse"><stop offset="0" stop-color="#fd5900"></stop><stop offset="1" stop-color="#ffde00"></stop></linearGradient><linearGradient id="b" x1="301" x2="301" y1="331.575" y2="210.57" gradientUnits="userSpaceOnUse"><stop offset="0" stop-color="#ffe59a"></stop><stop offset="1" stop-color="#ffffd5"></stop></linearGradient><path fill="url(&quot;#a&quot;)" d="M166 392h224.7c33.44 0 63.044-22.358 72.023-54.382l48.68-167.43A14.998 14.998 0 0 0 497 151H118.048l-17.614-82.222C91.863 28.925 55.933 0 15 0 6.716 0 0 6.716 0 15s6.716 15 15 15c26.457 0 50.577 19.383 56.103 45.074l55.206 257.695c2.799 13.017 9.075 25.057 17.991 34.825C130.422 375.267 121 390.052 121 407c0 20.723 14.085 38.209 33.181 43.414A44.76 44.76 0 0 0 151 467c0 24.813 20.187 45 45 45s45-20.187 45-45a44.79 44.79 0 0 0-2.58-15h125.16a44.79 44.79 0 0 0-2.58 15c0 24.813 20.187 45 45 45s45-20.187 45-45a44.79 44.79 0 0 0-2.58-15H466c8.284 0 15-6.716 15-15s-6.716-15-15-15H166c-8.271 0-15-6.729-15-15s6.729-15 15-15z" opacity="1" data-original="url(#a)"></path><path fill="url(&quot;#b&quot;)" d="M393.439 210.772c-8.173-1.347-15.892 4.187-17.24 12.361l-15 91c-1.347 8.174 4.187 15.893 12.361 17.24 8.197 1.352 15.896-4.211 17.24-12.361l15-91c1.347-8.175-4.186-15.893-12.361-17.24zM225.8 223.132c-1.347-8.174-9.063-13.708-17.24-12.361-8.174 1.347-13.708 9.066-12.361 17.24l15 91c1.344 8.154 9.046 13.713 17.24 12.361 8.174-1.347 13.708-9.066 12.361-17.24zm75.2-12.56c-8.284 0-15 6.716-15 15v91c0 8.284 6.716 15 15 15s15-6.716 15-15v-91c0-8.284-6.716-15-15-15z" opacity="1" data-original="url(#b)"></path></g></svg>