<svg xmlns="http://www.w3.org/2000/svg" version="1.1" xmlns:xlink="http://www.w3.org/1999/xlink" width="16" height="16" x="0" y="0" viewBox="0 0 24 24" style="enable-background:new 0 0 512 512" xml:space="preserve" class=""><g><g stroke-linecap="round" stroke-linejoin="round"><path fill="#FFCA28" d="M12 3c-.295 0-.548.144-.738.32-.19.176-.343.392-.484.633-.283.483-.522 1.081-.756 1.692-.234.61-.458 1.23-.672 1.725-.214.494-.462.858-.522.904-.06.046-.468.18-.984.24s-1.152.09-1.78.133c-.627.044-1.244.101-1.771.233a2.536 2.536 0 0 0-.727.283c-.219.135-.428.34-.52.633-.09.294-.036.592.065.836.102.244.252.459.428.674.352.43.82.856 1.303 1.277.483.421.981.836 1.365 1.202.384.365.637.723.66.797.023.074.02.521-.086 1.053-.105.531-.273 1.171-.427 1.808-.155.638-.295 1.269-.338 1.833-.022.282-.022.549.033.808.055.26.179.534.418.715.239.182.526.22.78.194.252-.026.493-.107.743-.215.5-.217 1.032-.554 1.565-.904.532-.35 1.063-.715 1.514-.983.45-.269.857-.41.931-.41.075 0 .48.141.932.41.451.268.981.632 1.514.983.532.35 1.064.687 1.564.904.25.108.491.19.744.215.253.025.54-.012.78-.194.239-.181.363-.455.418-.715.055-.259.054-.526.033-.808-.043-.564-.184-1.195-.338-1.833-.154-.637-.323-1.277-.428-1.808-.105-.532-.109-.98-.086-1.053.023-.074.277-.432.66-.797.384-.366.883-.78 1.366-1.202.483-.42.95-.847 1.303-1.277.176-.215.326-.43.427-.674.102-.244.156-.542.065-.836a1.156 1.156 0 0 0-.52-.633 2.536 2.536 0 0 0-.726-.283c-.527-.132-1.144-.189-1.772-.233-.628-.043-1.263-.073-1.78-.133-.515-.06-.924-.194-.984-.24-.06-.046-.307-.41-.521-.904-.214-.495-.438-1.115-.672-1.725-.234-.61-.474-1.209-.756-1.692a2.703 2.703 0 0 0-.484-.633C12.549 3.144 12.296 3 12 3z" opacity="1" data-original="#ffca28"></path><path fill="#FFC107" d="M12 3a.98.98 0 0 0-.5.146c.086.051.168.11.238.174.19.176.343.392.485.633.282.483.522 1.081.756 1.692.233.61.457 1.23.671 1.724.214.494.462.859.522.904.06.046.468.18.984.24s1.152.09 1.78.133c.627.044 1.244.101 1.771.233.263.066.508.148.727.283.219.135.428.34.52.633.09.294.036.594-.065.838a2.724 2.724 0 0 1-.428.674c-.352.43-.82.856-1.303 1.277-.483.421-.981.836-1.365 1.201-.384.366-.637.723-.66.797-.023.074-.02.521.086 1.053.105.531.273 1.17.427 1.808.155.638.295 1.268.338 1.832.022.283.022.55-.033.809-.055.26-.179.533-.418.715a.943.943 0 0 1-.18.107c.133.042.265.072.4.086.254.026.541-.012.78-.193.24-.182.363-.456.418-.715.055-.26.055-.526.033-.809-.043-.564-.183-1.194-.338-1.832-.154-.637-.322-1.277-.427-1.808-.105-.532-.11-.979-.086-1.053.023-.074.276-.431.66-.797.384-.365.882-.78 1.365-1.201.483-.421.95-.847 1.303-1.277.176-.215.326-.43.428-.674.101-.244.155-.544.064-.838a1.156 1.156 0 0 0-.52-.633 2.536 2.536 0 0 0-.726-.283c-.527-.132-1.144-.189-1.771-.233-.628-.043-1.264-.072-1.78-.132-.516-.06-.924-.195-.984-.24-.06-.046-.308-.41-.522-.905-.214-.494-.438-1.114-.671-1.724-.234-.61-.474-1.209-.756-1.692a2.702 2.702 0 0 0-.485-.633C12.548 3.144 12.295 3 12 3z" opacity="1" data-original="#ffc107"></path></g></g></svg>